<svg xmlns="http://www.w3.org/2000/svg" viewBox="0 0 512 512">
  <defs>
    <linearGradient id="bg" x1="72" y1="40" x2="448" y2="472" gradientUnits="userSpaceOnUse">
      <stop stop-color="#ffdf6a"/>
      <stop offset=".48" stop-color="#ff8a5c"/>
      <stop offset="1" stop-color="#4d8eea"/>
    </linearGradient>
    <linearGradient id="tile" x1="154" y1="98" x2="358" y2="414" gradientUnits="userSpaceOnUse">
      <stop stop-color="#fff9dc"/>
      <stop offset="1" stop-color="#ffd35a"/>
    </linearGradient>
  </defs>
  <rect width="512" height="512" rx="112" fill="#101735"/>
  <circle cx="110" cy="104" r="48" fill="#64d184"/>
  <circle cx="418" cy="104" r="38" fill="#5fc8ff"/>
  <circle cx="414" cy="414" r="58" fill="#f05d6f"/>
  <path d="M256 48c114.9 0 208 93.1 208 208s-93.1 208-208 208S48 370.9 48 256 141.1 48 256 48Z" fill="url(#bg)"/>
  <path d="M256 86 384 152v214L256 430 128 366V152L256 86Z" fill="#172144" opacity=".22"/>
  <path d="M256 76 374 146v220L256 436 138 366V146L256 76Z" fill="url(#tile)" stroke="#172144" stroke-width="18" stroke-linejoin="round"/>
  <path d="M256 126 332 170v152l-76 44-76-44V170l76-44Z" fill="#fffaf0" stroke="#172144" stroke-width="12" stroke-linejoin="round"/>
  <path d="M210 212h92M210 258h92M210 304h92" stroke="#172144" stroke-width="16" stroke-linecap="round"/>
  <path d="M256 158v200" stroke="#172144" stroke-width="16" stroke-linecap="round"/>
  <path d="M180 170 138 146v220l42-24V170Zm152 0 42-24v220l-42-24V170Z" fill="#ffd35a" opacity=".74"/>
  <text x="256" y="478" text-anchor="middle" font-family="Segoe UI, Arial, sans-serif" font-size="54" font-weight="900" fill="#fffaf0" stroke="#172144" stroke-width="8" paint-order="stroke">L-SHOGI</text>
</svg>
